<?xml version="1.0" encoding="UTF-8" standalone="no"?>
<!DOCTYPE svg PUBLIC "-//W3C//DTD SVG 1.1//EN"
 "http://www.w3.org/Graphics/SVG/1.1/DTD/svg11.dtd">
<!-- Generated by graphviz version 2.38.0 (20140413.2041)
 -->
<!-- Title: G Pages: 1 -->
<svg width="3208pt" height="738pt"
 viewBox="0.00 0.00 3208.00 738.40" xmlns="http://www.w3.org/2000/svg" xmlns:xlink="http://www.w3.org/1999/xlink">
<g id="graph0" class="graph" transform="scale(1 1) rotate(0) translate(4 734.4)">
<title>G</title>
<polygon fill="white" stroke="none" points="-4,4 -4,-734.4 3204,-734.4 3204,4 -4,4"/>
<g id="clust1" class="cluster"><title>cluster_0</title>
<polygon fill="lightgray" stroke="lightgrey" points="8,-8 8,-596.4 882,-596.4 882,-8 8,-8"/>
<text text-anchor="middle" x="445.478" y="-565.4" font-family="Times,serif" font-size="30.00">/Users/haquey/mozilla&#45;central/devtools/client/inspector/layout/layout.js</text>
</g>
<g id="clust2" class="cluster"><title>cluster_1</title>
<polygon fill="lightgray" stroke="lightgrey" points="890,-104.2 890,-722.4 2271,-722.4 2271,-104.2 890,-104.2"/>
<text text-anchor="middle" x="1434.96" y="-691.4" font-family="Times,serif" font-size="30.00">/Users/haquey/mozilla&#45;central/devtools/client/inspector/layout/components/LayoutApp.js</text>
</g>
<g id="clust3" class="cluster"><title>cluster_2</title>
<polygon fill="lightgray" stroke="lightgrey" points="2279,-444.2 2279,-579.6 3192,-579.6 3192,-444.2 2279,-444.2"/>
<text text-anchor="middle" x="2735.66" y="-548.6" font-family="Times,serif" font-size="30.00">/Users/haquey/mozilla&#45;central/devtools/client/inspector/layout/utils/l10n.js</text>
</g>
<!-- 0 -->
<g id="node1" class="node"><title>0</title>
<polygon fill="lightyellow" stroke="black" points="486.186,-435.9 486.186,-543.9 837.814,-543.9 837.814,-435.9 486.186,-435.9"/>
<text text-anchor="middle" x="662" y="-527.3" font-family="Times,serif" font-size="14.00">«GLOBAL»</text>
<polyline fill="none" stroke="black" points="486.186,-519.1 837.814,-519.1 "/>
<text text-anchor="start" x="494.186" y="-502.5" font-family="Times,serif" font-size="14.00">&#45;FlexboxInspector : variable = devtoolsclientinspectorflex...</text>
<text text-anchor="start" x="494.186" y="-485.7" font-family="Times,serif" font-size="14.00">&#45;GridInspector : variable = devtoolsclientinspectorgrid...</text>
<text text-anchor="start" x="494.186" y="-468.9" font-family="Times,serif" font-size="14.00">&#45;LayoutApp : variable</text>
<polyline fill="none" stroke="black" points="486.186,-460.7 837.814,-460.7 "/>
<text text-anchor="start" x="494.186" y="-444.1" font-family="Times,serif" font-size="14.00">&#45;undefined(devtoolsclientlocalesinspec...)</text>
</g>
<!-- 23 -->
<g id="node2" class="node"><title>23</title>
<polygon fill="khaki" stroke="black" points="317.262,-469.1 317.262,-510.7 406.738,-510.7 406.738,-469.1 317.262,-469.1"/>
<text text-anchor="middle" x="362" y="-494.1" font-family="Times,serif" font-size="14.00">«CLASS»</text>
<text text-anchor="middle" x="362" y="-477.3" font-family="Times,serif" font-size="14.00"> LayoutView</text>
</g>
<!-- 24 -->
<g id="node3" class="node"><title>24</title>
<polygon fill="lightblue" stroke="black" points="15.6375,-192.5 15.6375,-292.5 246.363,-292.5 246.363,-192.5 15.6375,-192.5"/>
<text text-anchor="middle" x="131" y="-275.9" font-family="Times,serif" font-size="14.00">«FUNCTION»</text>
<text text-anchor="middle" x="131" y="-259.1" font-family="Times,serif" font-size="14.00"> constructor(inspector,window)</text>
<polyline fill="none" stroke="black" points="15.6375,-250.9 246.363,-250.9 "/>
<text text-anchor="start" x="23.6375" y="-234.3" font-family="Times,serif" font-size="14.00">publicdocument : object</text>
<text text-anchor="start" x="23.6375" y="-217.5" font-family="Times,serif" font-size="14.00">publicinspector : identifier = inspector</text>
<text text-anchor="start" x="23.6375" y="-200.7" font-family="Times,serif" font-size="14.00">publicstore : object</text>
</g>
<!-- 23&#45;&gt;24 -->
<g id="edge15" class="edge"><title>23&#45;&gt;24</title>
<path fill="none" stroke="black" d="M334.67,-459.866C295.954,-418.737 224.618,-342.953 177.488,-292.886"/>
<polygon fill="black" stroke="black" points="334.871,-460.08 341.896,-461.707 343.096,-468.818 336.071,-467.191 334.871,-460.08"/>
</g>
<!-- 25 -->
<g id="node4" class="node"><title>25</title>
<polygon fill="lightblue" stroke="black" points="253.076,-192.5 253.076,-292.5 398.924,-292.5 398.924,-192.5 253.076,-192.5"/>
<text text-anchor="middle" x="326" y="-275.9" font-family="Times,serif" font-size="14.00">«FUNCTION»</text>
<text text-anchor="middle" x="326" y="-259.1" font-family="Times,serif" font-size="14.00"> init()</text>
<polyline fill="none" stroke="black" points="253.076,-250.9 398.924,-250.9 "/>
<text text-anchor="start" x="261.076" y="-234.3" font-family="Times,serif" font-size="14.00">&#45;layoutApp : variable</text>
<text text-anchor="start" x="261.076" y="-217.5" font-family="Times,serif" font-size="14.00">publicflexboxInspector</text>
<text text-anchor="start" x="261.076" y="-200.7" font-family="Times,serif" font-size="14.00">publicgridInspector</text>
</g>
<!-- 23&#45;&gt;25 -->
<g id="edge16" class="edge"><title>23&#45;&gt;25</title>
<path fill="none" stroke="black" d="M357.274,-456.684C351.148,-414.924 340.404,-341.689 333.245,-292.886"/>
<polygon fill="black" stroke="black" points="357.312,-456.945 362.141,-462.301 359.054,-468.818 354.225,-463.462 357.312,-456.945"/>
</g>
<!-- 28 -->
<g id="node7" class="node"><title>28</title>
<polygon fill="lightblue" stroke="black" points="406.293,-184.1 406.293,-300.9 637.707,-300.9 637.707,-184.1 406.293,-184.1"/>
<text text-anchor="middle" x="522" y="-284.3" font-family="Times,serif" font-size="14.00">«FUNCTION»</text>
<text text-anchor="middle" x="522" y="-267.5" font-family="Times,serif" font-size="14.00"> destroy()</text>
<polyline fill="none" stroke="black" points="406.293,-259.3 637.707,-259.3 "/>
<text text-anchor="start" x="414.293" y="-242.7" font-family="Times,serif" font-size="14.00">publicdocument : null</text>
<text text-anchor="start" x="414.293" y="-225.9" font-family="Times,serif" font-size="14.00">publicinspector : null</text>
<text text-anchor="start" x="414.293" y="-209.1" font-family="Times,serif" font-size="14.00">publicstore : null</text>
<text text-anchor="start" x="414.293" y="-192.3" font-family="Times,serif" font-size="14.00">publicswatchColorPickerTooltip : null</text>
</g>
<!-- 23&#45;&gt;28 -->
<g id="edge19" class="edge"><title>23&#45;&gt;28</title>
<path fill="none" stroke="black" d="M381.753,-458.603C407.291,-419.436 452.291,-350.415 484.433,-301.119"/>
<polygon fill="black" stroke="black" points="381.647,-458.766 381.721,-465.976 375.093,-468.818 375.02,-461.607 381.647,-458.766"/>
</g>
<!-- 30 -->
<g id="node9" class="node"><title>30</title>
<polygon fill="lightblue" stroke="black" points="644.629,-209.3 644.629,-275.7 843.371,-275.7 843.371,-209.3 644.629,-209.3"/>
<text text-anchor="middle" x="744" y="-259.1" font-family="Times,serif" font-size="14.00">«FUNCTION»</text>
<text text-anchor="middle" x="744" y="-242.3" font-family="Times,serif" font-size="14.00"> swatchColorPickerTooltip()</text>
<polyline fill="none" stroke="black" points="644.629,-234.1 843.371,-234.1 "/>
<text text-anchor="start" x="652.629" y="-217.5" font-family="Times,serif" font-size="14.00">publicswatchColorPickerTooltip</text>
</g>
<!-- 23&#45;&gt;30 -->
<g id="edge21" class="edge"><title>23&#45;&gt;30</title>
<path fill="none" stroke="black" d="M372.902,-457.533C389.398,-415.42 425.071,-342.118 483,-309.4 513.611,-292.111 607.226,-311.161 641,-301.4 660.51,-295.761 680.334,-285.825 697.311,-275.758"/>
<polygon fill="black" stroke="black" points="372.804,-457.793 374.433,-464.818 368.575,-469.023 366.946,-461.998 372.804,-457.793"/>
</g>
<!-- 26 -->
<g id="node5" class="node"><title>26</title>
<polygon fill="khaki" stroke="black" points="84.2044,-112.7 84.2044,-154.3 197.796,-154.3 197.796,-112.7 84.2044,-112.7"/>
<text text-anchor="middle" x="141" y="-137.7" font-family="Times,serif" font-size="14.00">«BLOCK»</text>
<text text-anchor="middle" x="141" y="-120.9" font-family="Times,serif" font-size="14.00"> ReturnStatement</text>
</g>
<!-- 25&#45;&gt;26 -->
<g id="edge17" class="edge"><title>25&#45;&gt;26</title>
<path fill="none" stroke="black" d="M255.109,-186.424C253.081,-185.424 251.043,-184.48 249,-183.6 229.539,-175.218 221.672,-183.474 202,-175.6 189.078,-170.427 176.101,-162.209 165.459,-154.475"/>
<polygon fill="black" stroke="black" points="255.295,-186.525 262.476,-185.874 265.839,-192.253 258.657,-192.904 255.295,-186.525"/>
</g>
<!-- 27 -->
<g id="node6" class="node"><title>27</title>
<polygon fill="lightblue" stroke="black" points="204.365,-91.9 204.365,-175.1 457.635,-175.1 457.635,-91.9 204.365,-91.9"/>
<text text-anchor="middle" x="331" y="-158.5" font-family="Times,serif" font-size="14.00">«FUNCTION»</text>
<text text-anchor="middle" x="331" y="-141.7" font-family="Times,serif" font-size="14.00"> function</text>
<polyline fill="none" stroke="black" points="204.365,-133.5 457.635,-133.5 "/>
<text text-anchor="start" x="212.365" y="-116.9" font-family="Times,serif" font-size="14.00">&#45;provider : variable = Provider, layoutApp</text>
<text text-anchor="start" x="212.365" y="-100.1" font-family="Times,serif" font-size="14.00">publicprovider : identifier = provider</text>
</g>
<!-- 25&#45;&gt;27 -->
<g id="edge18" class="edge"><title>25&#45;&gt;27</title>
<path fill="none" stroke="black" d="M328.859,-180.324C328.937,-178.638 329.016,-176.963 329.093,-175.305"/>
<polygon fill="black" stroke="black" points="328.855,-180.397 332.571,-186.578 328.295,-192.384 324.58,-186.204 328.855,-180.397"/>
</g>
<!-- 29 -->
<g id="node8" class="node"><title>29</title>
<polygon fill="khaki" stroke="black" points="469.48,-112.7 469.48,-154.3 574.52,-154.3 574.52,-112.7 469.48,-112.7"/>
<text text-anchor="middle" x="522" y="-137.7" font-family="Times,serif" font-size="14.00">«BLOCK»</text>
<text text-anchor="middle" x="522" y="-120.9" font-family="Times,serif" font-size="14.00"> CallExpression</text>
</g>
<!-- 28&#45;&gt;29 -->
<g id="edge20" class="edge"><title>28&#45;&gt;29</title>
<path fill="none" stroke="black" d="M522,-171.832C522,-165.693 522,-159.867 522,-154.722"/>
<polygon fill="black" stroke="black" points="522,-171.928 526,-177.928 522,-183.928 518,-177.928 522,-171.928"/>
</g>
<!-- 31 -->
<g id="node10" class="node"><title>31</title>
<polygon fill="khaki" stroke="black" points="669.705,-112.7 669.705,-154.3 818.295,-154.3 818.295,-112.7 669.705,-112.7"/>
<text text-anchor="middle" x="744" y="-137.7" font-family="Times,serif" font-size="14.00">«BLOCK»</text>
<text text-anchor="middle" x="744" y="-120.9" font-family="Times,serif" font-size="14.00"> AssignmentExpression</text>
</g>
<!-- 30&#45;&gt;31 -->
<g id="edge22" class="edge"><title>30&#45;&gt;31</title>
<path fill="none" stroke="black" d="M744,-196.969C744,-182.131 744,-166.345 744,-154.355"/>
<polygon fill="black" stroke="black" points="744,-197.106 748,-203.106 744,-209.106 740,-203.106 744,-197.106"/>
</g>
<!-- 32 -->
<g id="node11" class="node"><title>32</title>
<polygon fill="lightblue" stroke="black" points="615.162,-16.5 615.162,-82.9 872.838,-82.9 872.838,-16.5 615.162,-16.5"/>
<text text-anchor="middle" x="744" y="-66.3" font-family="Times,serif" font-size="14.00">«FUNCTION»</text>
<text text-anchor="middle" x="744" y="-49.5" font-family="Times,serif" font-size="14.00"> function</text>
<polyline fill="none" stroke="black" points="615.162,-41.3 872.838,-41.3 "/>
<text text-anchor="start" x="623.163" y="-24.7" font-family="Times,serif" font-size="14.00">+module.exports : identifier = LayoutView</text>
</g>
<!-- 31&#45;&gt;32 -->
<g id="edge23" class="edge"><title>31&#45;&gt;32</title>
<path fill="none" stroke="black" d="M744,-100.661C744,-94.8908 744,-88.8669 744,-83.0809"/>
<polygon fill="black" stroke="black" points="744,-100.699 748,-106.699 744,-112.699 740,-106.698 744,-100.699"/>
</g>
<!-- 1 -->
<g id="node12" class="node"><title>1</title>
<polygon fill="lightyellow" stroke="black" points="1709.75,-309.9 1709.75,-669.9 2184.25,-669.9 2184.25,-309.9 1709.75,-309.9"/>
<text text-anchor="middle" x="1947" y="-653.3" font-family="Times,serif" font-size="14.00">«GLOBAL»</text>
<polyline fill="none" stroke="black" points="1709.75,-645.1 2184.25,-645.1 "/>
<text text-anchor="start" x="1717.75" y="-628.5" font-family="Times,serif" font-size="14.00">&#45;Accordion : variable</text>
<text text-anchor="start" x="1717.75" y="-611.7" font-family="Times,serif" font-size="14.00">&#45;BOXMODELOPENEDPREF : variable = devtools.layout.boxmodel.opene...</text>
<text text-anchor="start" x="1717.75" y="-594.9" font-family="Times,serif" font-size="14.00">&#45;BOXMODELSTRINGSURI : variable = devtoolsclientlocalesboxmod...</text>
<text text-anchor="start" x="1717.75" y="-578.1" font-family="Times,serif" font-size="14.00">&#45;BoxModel : variable</text>
<text text-anchor="start" x="1717.75" y="-561.3" font-family="Times,serif" font-size="14.00">&#45;BoxModelTypes : variable = devtoolsclientinspectorboxm...</text>
<text text-anchor="start" x="1717.75" y="-544.5" font-family="Times,serif" font-size="14.00">&#45;FLEXBOXOPENEDPREF : variable = devtools.layout.flexbox.opened</text>
<text text-anchor="start" x="1717.75" y="-527.7" font-family="Times,serif" font-size="14.00">&#45;FLEXCONTAINEROPENEDPREF : variable = devtools.layout.flex&#45;container...</text>
<text text-anchor="start" x="1717.75" y="-510.9" font-family="Times,serif" font-size="14.00">&#45;FLEXITEMOPENEDPREF : variable = devtools.layout.flex&#45;item.open...</text>
<text text-anchor="start" x="1717.75" y="-494.1" font-family="Times,serif" font-size="14.00">&#45;Flexbox : variable</text>
<text text-anchor="start" x="1717.75" y="-477.3" font-family="Times,serif" font-size="14.00">&#45;FlexboxTypes : variable = devtoolsclientinspectorflex...</text>
<text text-anchor="start" x="1717.75" y="-460.5" font-family="Times,serif" font-size="14.00">&#45;GRIDOPENEDPREF : variable = devtools.layout.grid.opened</text>
<text text-anchor="start" x="1717.75" y="-443.7" font-family="Times,serif" font-size="14.00">&#45;Grid : variable</text>
<text text-anchor="start" x="1717.75" y="-426.9" font-family="Times,serif" font-size="14.00">&#45;GridTypes : variable = devtoolsclientinspectorgrid...</text>
<text text-anchor="start" x="1717.75" y="-410.1" font-family="Times,serif" font-size="14.00">&#45;LAYOUTSTRINGSURI : variable = devtoolsclientlocaleslayout...</text>
<text text-anchor="start" x="1717.75" y="-393.3" font-family="Times,serif" font-size="14.00">&#45;PropTypes : variable = devtoolsclientsharedvendor...</text>
<text text-anchor="start" x="1717.75" y="-376.5" font-family="Times,serif" font-size="14.00">&#45;Services : variable = Services</text>
<text text-anchor="start" x="1717.75" y="-359.7" font-family="Times,serif" font-size="14.00">&#45;dom : variable = devtoolsclientsharedvendor...</text>
<polyline fill="none" stroke="black" points="1709.75,-351.5 2184.25,-351.5 "/>
<text text-anchor="start" x="1717.75" y="-334.9" font-family="Times,serif" font-size="14.00">&#45;undefined(BOXMODELSTRINGSURI)</text>
<text text-anchor="start" x="1717.75" y="-318.1" font-family="Times,serif" font-size="14.00">&#45;undefined(LAYOUTSTRINGSURI)</text>
</g>
<!-- 3 -->
<g id="node13" class="node"><title>3</title>
<polygon fill="khaki" stroke="black" points="1462.37,-469.1 1462.37,-510.7 1545.63,-510.7 1545.63,-469.1 1462.37,-469.1"/>
<text text-anchor="middle" x="1504" y="-494.1" font-family="Times,serif" font-size="14.00">«CLASS»</text>
<text text-anchor="middle" x="1504" y="-477.3" font-family="Times,serif" font-size="14.00"> LayoutApp</text>
</g>
<!-- 4 -->
<g id="node14" class="node"><title>4</title>
<polygon fill="lightblue" stroke="black" points="897.96,-221.7 897.96,-263.3 1008.04,-263.3 1008.04,-221.7 897.96,-221.7"/>
<text text-anchor="middle" x="953" y="-246.7" font-family="Times,serif" font-size="14.00">«FUNCTION»</text>
<text text-anchor="middle" x="953" y="-229.9" font-family="Times,serif" font-size="14.00"> propTypes()</text>
</g>
<!-- 3&#45;&gt;4 -->
<g id="edge1" class="edge"><title>3&#45;&gt;4</title>
<path fill="none" stroke="black" d="M1478.87,-459.93C1440.1,-417.626 1361.1,-340.596 1275,-309.4 1247.51,-299.441 1038.89,-312.871 1012,-301.4 993.519,-293.517 977.606,-276.939 966.98,-263.535"/>
<polygon fill="black" stroke="black" points="1478.93,-459.989 1485.91,-461.763 1486.96,-468.898 1479.98,-467.123 1478.93,-459.989"/>
</g>
<!-- 5 -->
<g id="node15" class="node"><title>5</title>
<polygon fill="lightblue" stroke="black" points="1014.69,-200.9 1014.69,-284.1 1147.31,-284.1 1147.31,-200.9 1014.69,-200.9"/>
<text text-anchor="middle" x="1081" y="-267.5" font-family="Times,serif" font-size="14.00">«FUNCTION»</text>
<text text-anchor="middle" x="1081" y="-250.7" font-family="Times,serif" font-size="14.00"> constructor(props)</text>
<polyline fill="none" stroke="black" points="1014.69,-242.5 1147.31,-242.5 "/>
<text text-anchor="start" x="1022.69" y="-225.9" font-family="Times,serif" font-size="14.00">publiccontainerRef()</text>
<text text-anchor="start" x="1022.69" y="-209.1" font-family="Times,serif" font-size="14.00">publicscrollToTop()</text>
</g>
<!-- 3&#45;&gt;5 -->
<g id="edge2" class="edge"><title>3&#45;&gt;5</title>
<path fill="none" stroke="black" d="M1478.43,-459.981C1439.37,-418.087 1360.34,-341.972 1275,-309.4 1223.4,-289.707 1202.33,-321.769 1151,-301.4 1140.74,-297.328 1130.85,-291.154 1121.91,-284.332"/>
<polygon fill="black" stroke="black" points="1478.48,-460.028 1485.48,-461.741 1486.59,-468.865 1479.59,-467.153 1478.48,-460.028"/>
</g>
<!-- 6 -->
<g id="node16" class="node"><title>6</title>
<polygon fill="lightblue" stroke="black" points="1154.1,-221.7 1154.1,-263.3 1301.9,-263.3 1301.9,-221.7 1154.1,-221.7"/>
<text text-anchor="middle" x="1228" y="-246.7" font-family="Times,serif" font-size="14.00">«FUNCTION»</text>
<text text-anchor="middle" x="1228" y="-229.9" font-family="Times,serif" font-size="14.00"> getBoxModelSection()</text>
</g>
<!-- 3&#45;&gt;6 -->
<g id="edge3" class="edge"><title>3&#45;&gt;6</title>
<path fill="none" stroke="black" d="M1472.25,-460.67C1415.84,-410.516 1299.49,-307.063 1250.51,-263.515"/>
<polygon fill="black" stroke="black" points="1472.45,-460.844 1479.59,-461.842 1481.41,-468.818 1474.27,-467.82 1472.45,-460.844"/>
</g>
<!-- 8 -->
<g id="node18" class="node"><title>8</title>
<polygon fill="lightblue" stroke="black" points="1309.35,-221.7 1309.35,-263.3 1542.65,-263.3 1542.65,-221.7 1309.35,-221.7"/>
<text text-anchor="middle" x="1426" y="-246.7" font-family="Times,serif" font-size="14.00">«FUNCTION»</text>
<text text-anchor="middle" x="1426" y="-229.9" font-family="Times,serif" font-size="14.00"> getFlexAccordionData(flexContainer)</text>
</g>
<!-- 3&#45;&gt;8 -->
<g id="edge5" class="edge"><title>3&#45;&gt;8</title>
<path fill="none" stroke="black" d="M1493.91,-457.17C1477.6,-405.845 1445.89,-306.073 1432.36,-263.515"/>
<polygon fill="black" stroke="black" points="1493.98,-457.382 1499.61,-461.888 1497.62,-468.818 1491.99,-464.311 1493.98,-457.382"/>
</g>
<!-- 11 -->
<g id="node21" class="node"><title>11</title>
<polygon fill="lightblue" stroke="black" points="1550.11,-221.7 1550.11,-263.3 1739.89,-263.3 1739.89,-221.7 1550.11,-221.7"/>
<text text-anchor="middle" x="1645" y="-246.7" font-family="Times,serif" font-size="14.00">«FUNCTION»</text>
<text text-anchor="middle" x="1645" y="-229.9" font-family="Times,serif" font-size="14.00"> getFlexSection(flexContainer)</text>
</g>
<!-- 3&#45;&gt;11 -->
<g id="edge8" class="edge"><title>3&#45;&gt;11</title>
<path fill="none" stroke="black" d="M1521.67,-458.14C1550.99,-407.113 1608.89,-306.343 1633.5,-263.515"/>
<polygon fill="black" stroke="black" points="1521.52,-458.413 1522,-465.608 1515.54,-468.818 1515.06,-461.623 1521.52,-458.413"/>
</g>
<!-- 13 -->
<g id="node23" class="node"><title>13</title>
<polygon fill="lightblue" stroke="black" points="1747.21,-221.7 1747.21,-263.3 1860.79,-263.3 1860.79,-221.7 1747.21,-221.7"/>
<text text-anchor="middle" x="1804" y="-246.7" font-family="Times,serif" font-size="14.00">«FUNCTION»</text>
<text text-anchor="middle" x="1804" y="-229.9" font-family="Times,serif" font-size="14.00"> getGridSection()</text>
</g>
<!-- 3&#45;&gt;13 -->
<g id="edge10" class="edge"><title>3&#45;&gt;13</title>
<path fill="none" stroke="black" d="M1527.92,-459.793C1562.73,-419.456 1631.41,-347.262 1706,-309.4 1721,-301.785 1728.12,-309.261 1743,-301.4 1760.69,-292.054 1776.91,-276.129 1788.18,-263.343"/>
<polygon fill="black" stroke="black" points="1527.79,-459.945 1526.94,-467.107 1520.01,-469.084 1520.85,-461.922 1527.79,-459.945"/>
</g>
<!-- 15 -->
<g id="node25" class="node"><title>15</title>
<polygon fill="lightblue" stroke="black" points="1867.6,-209.3 1867.6,-275.7 2136.4,-275.7 2136.4,-209.3 1867.6,-209.3"/>
<text text-anchor="middle" x="2002" y="-259.1" font-family="Times,serif" font-size="14.00">«FUNCTION»</text>
<text text-anchor="middle" x="2002" y="-242.3" font-family="Times,serif" font-size="14.00"> scrollToTop()</text>
<polyline fill="none" stroke="black" points="1867.6,-234.1 2136.4,-234.1 "/>
<text text-anchor="start" x="1875.6" y="-217.5" font-family="Times,serif" font-size="14.00">&#45;containerRef.current.scrollTop : number = 0</text>
</g>
<!-- 3&#45;&gt;15 -->
<g id="edge12" class="edge"><title>3&#45;&gt;15</title>
<path fill="none" stroke="black" d="M1526.09,-459.394C1559.62,-417.26 1627.78,-341.418 1706,-309.4 1738.54,-296.082 1829.72,-309.207 1864,-301.4 1888.95,-295.717 1915.13,-285.836 1937.9,-275.828"/>
<polygon fill="black" stroke="black" points="1525.91,-459.63 1525.37,-466.821 1518.52,-469.085 1519.06,-461.895 1525.91,-459.63"/>
</g>
<!-- 16 -->
<g id="node26" class="node"><title>16</title>
<polygon fill="lightblue" stroke="black" points="2143.04,-196.9 2143.04,-288.1 2262.96,-288.1 2262.96,-196.9 2143.04,-196.9"/>
<text text-anchor="middle" x="2203" y="-271.5" font-family="Times,serif" font-size="14.00">«FUNCTION»</text>
<text text-anchor="middle" x="2203" y="-254.7" font-family="Times,serif" font-size="14.00"> render()</text>
<polyline fill="none" stroke="black" points="2143.04,-246.5 2262.96,-246.5 "/>
<text text-anchor="start" x="2151.04" y="-229.9" font-family="Times,serif" font-size="14.00">&#45;items : array</text>
<polyline fill="none" stroke="black" points="2143.04,-221.7 2262.96,-221.7 "/>
<text text-anchor="start" x="2151.04" y="-205.1" font-family="Times,serif" font-size="14.00">+module.exports()</text>
</g>
<!-- 3&#45;&gt;16 -->
<g id="edge13" class="edge"><title>3&#45;&gt;16</title>
<path fill="none" stroke="black" d="M1525.75,-459.332C1559.03,-416.837 1627.11,-340.223 1706,-309.4 1750.82,-291.888 2094.26,-319.111 2139,-301.4 2146.94,-298.256 2154.52,-293.642 2161.5,-288.368"/>
<polygon fill="black" stroke="black" points="1525.74,-459.341 1525.26,-466.535 1518.43,-468.853 1518.91,-461.658 1525.74,-459.341"/>
</g>
<!-- 7 -->
<g id="node17" class="node"><title>7</title>
<polygon fill="lightblue" stroke="black" points="1172.96,-112.7 1172.96,-154.3 1283.04,-154.3 1283.04,-112.7 1172.96,-112.7"/>
<text text-anchor="middle" x="1228" y="-137.7" font-family="Times,serif" font-size="14.00">«FUNCTION»</text>
<text text-anchor="middle" x="1228" y="-120.9" font-family="Times,serif" font-size="14.00"> function</text>
</g>
<!-- 6&#45;&gt;7 -->
<g id="edge4" class="edge"><title>6&#45;&gt;7</title>
<path fill="none" stroke="black" d="M1228,-209.477C1228,-191.675 1228,-170.069 1228,-154.632"/>
<polygon fill="black" stroke="black" points="1228,-209.625 1232,-215.625 1228,-221.625 1224,-215.625 1228,-209.625"/>
</g>
<!-- 9 -->
<g id="node19" class="node"><title>9</title>
<polygon fill="khaki" stroke="black" points="1319.2,-112.7 1319.2,-154.3 1432.8,-154.3 1432.8,-112.7 1319.2,-112.7"/>
<text text-anchor="middle" x="1376" y="-137.7" font-family="Times,serif" font-size="14.00">«BLOCK»</text>
<text text-anchor="middle" x="1376" y="-120.9" font-family="Times,serif" font-size="14.00"> ReturnStatement</text>
</g>
<!-- 8&#45;&gt;9 -->
<g id="edge6" class="edge"><title>8&#45;&gt;9</title>
<path fill="none" stroke="black" d="M1411.52,-210.51C1403.11,-192.516 1392.76,-170.368 1385.41,-154.632"/>
<polygon fill="black" stroke="black" points="1411.63,-210.753 1417.8,-214.496 1416.71,-221.625 1410.55,-217.882 1411.63,-210.753"/>
</g>
<!-- 10 -->
<g id="node20" class="node"><title>10</title>
<polygon fill="khaki" stroke="black" points="1440.2,-112.7 1440.2,-154.3 1553.8,-154.3 1553.8,-112.7 1440.2,-112.7"/>
<text text-anchor="middle" x="1497" y="-137.7" font-family="Times,serif" font-size="14.00">«BLOCK»</text>
<text text-anchor="middle" x="1497" y="-120.9" font-family="Times,serif" font-size="14.00"> ReturnStatement</text>
</g>
<!-- 8&#45;&gt;10 -->
<g id="edge7" class="edge"><title>8&#45;&gt;10</title>
<path fill="none" stroke="black" d="M1445.88,-211.533C1457.94,-193.362 1473,-170.668 1483.64,-154.632"/>
<polygon fill="black" stroke="black" points="1445.82,-211.626 1445.84,-218.837 1439.19,-221.625 1439.17,-214.414 1445.82,-211.626"/>
</g>
<!-- 12 -->
<g id="node22" class="node"><title>12</title>
<polygon fill="lightblue" stroke="black" points="1589.96,-112.7 1589.96,-154.3 1700.04,-154.3 1700.04,-112.7 1589.96,-112.7"/>
<text text-anchor="middle" x="1645" y="-137.7" font-family="Times,serif" font-size="14.00">«FUNCTION»</text>
<text text-anchor="middle" x="1645" y="-120.9" font-family="Times,serif" font-size="14.00"> function</text>
</g>
<!-- 11&#45;&gt;12 -->
<g id="edge9" class="edge"><title>11&#45;&gt;12</title>
<path fill="none" stroke="black" d="M1645,-209.477C1645,-191.675 1645,-170.069 1645,-154.632"/>
<polygon fill="black" stroke="black" points="1645,-209.625 1649,-215.625 1645,-221.625 1641,-215.625 1645,-209.625"/>
</g>
<!-- 14 -->
<g id="node24" class="node"><title>14</title>
<polygon fill="lightblue" stroke="black" points="1748.96,-112.7 1748.96,-154.3 1859.04,-154.3 1859.04,-112.7 1748.96,-112.7"/>
<text text-anchor="middle" x="1804" y="-137.7" font-family="Times,serif" font-size="14.00">«FUNCTION»</text>
<text text-anchor="middle" x="1804" y="-120.9" font-family="Times,serif" font-size="14.00"> function</text>
</g>
<!-- 13&#45;&gt;14 -->
<g id="edge11" class="edge"><title>13&#45;&gt;14</title>
<path fill="none" stroke="black" d="M1804,-209.477C1804,-191.675 1804,-170.069 1804,-154.632"/>
<polygon fill="black" stroke="black" points="1804,-209.625 1808,-215.625 1804,-221.625 1800,-215.625 1804,-209.625"/>
</g>
<!-- 17 -->
<g id="node27" class="node"><title>17</title>
<polygon fill="khaki" stroke="black" points="2150.48,-112.7 2150.48,-154.3 2255.52,-154.3 2255.52,-112.7 2150.48,-112.7"/>
<text text-anchor="middle" x="2203" y="-137.7" font-family="Times,serif" font-size="14.00">«BLOCK»</text>
<text text-anchor="middle" x="2203" y="-120.9" font-family="Times,serif" font-size="14.00"> CallExpression</text>
</g>
<!-- 16&#45;&gt;17 -->
<g id="edge14" class="edge"><title>16&#45;&gt;17</title>
<path fill="none" stroke="black" d="M2203,-184.513C2203,-173.668 2203,-163.016 2203,-154.348"/>
<polygon fill="black" stroke="black" points="2203,-184.742 2207,-190.742 2203,-196.742 2199,-190.742 2203,-184.742"/>
</g>
<!-- 18 -->
<g id="node28" class="node"><title>18</title>
<polygon fill="lightblue" stroke="black" points="1160.96,-469.1 1160.96,-510.7 1271.04,-510.7 1271.04,-469.1 1160.96,-469.1"/>
<text text-anchor="middle" x="1216" y="-494.1" font-family="Times,serif" font-size="14.00">«FUNCTION»</text>
<text text-anchor="middle" x="1216" y="-477.3" font-family="Times,serif" font-size="14.00"> function</text>
</g>
<!-- 2 -->
<g id="node29" class="node"><title>2</title>
<polygon fill="lightyellow" stroke="black" points="2929.57,-452.7 2929.57,-527.1 3178.43,-527.1 3178.43,-452.7 2929.57,-452.7"/>
<text text-anchor="middle" x="3054" y="-510.5" font-family="Times,serif" font-size="14.00">«GLOBAL»</text>
<polyline fill="none" stroke="black" points="2929.57,-502.3 3178.43,-502.3 "/>
<text text-anchor="start" x="2937.57" y="-485.7" font-family="Times,serif" font-size="14.00">+module.exports : module.exports</text>
<polyline fill="none" stroke="black" points="2929.57,-477.5 3178.43,-477.5 "/>
<text text-anchor="start" x="2937.57" y="-460.9" font-family="Times,serif" font-size="14.00">&#45;undefined(devtoolsclientlocaleslayout...)</text>
</g>
<!-- 19 -->
<g id="node30" class="node"><title>19</title>
<polygon fill="lightblue" stroke="black" points="2806.96,-469.1 2806.96,-510.7 2917.04,-510.7 2917.04,-469.1 2806.96,-469.1"/>
<text text-anchor="middle" x="2862" y="-494.1" font-family="Times,serif" font-size="14.00">«FUNCTION»</text>
<text text-anchor="middle" x="2862" y="-477.3" font-family="Times,serif" font-size="14.00"> function</text>
</g>
<!-- 20 -->
<g id="node31" class="node"><title>20</title>
<polygon fill="lightblue" stroke="black" points="2678.96,-469.1 2678.96,-510.7 2789.04,-510.7 2789.04,-469.1 2678.96,-469.1"/>
<text text-anchor="middle" x="2734" y="-494.1" font-family="Times,serif" font-size="14.00">«FUNCTION»</text>
<text text-anchor="middle" x="2734" y="-477.3" font-family="Times,serif" font-size="14.00"> function</text>
</g>
<!-- 21 -->
<g id="node32" class="node"><title>21</title>
<polygon fill="lightblue" stroke="black" points="2538.96,-469.1 2538.96,-510.7 2649.04,-510.7 2649.04,-469.1 2538.96,-469.1"/>
<text text-anchor="middle" x="2594" y="-494.1" font-family="Times,serif" font-size="14.00">«FUNCTION»</text>
<text text-anchor="middle" x="2594" y="-477.3" font-family="Times,serif" font-size="14.00"> function</text>
</g>
<!-- 22 -->
<g id="node33" class="node"><title>22</title>
<polygon fill="lightblue" stroke="black" points="2376.96,-469.1 2376.96,-510.7 2487.04,-510.7 2487.04,-469.1 2376.96,-469.1"/>
<text text-anchor="middle" x="2432" y="-494.1" font-family="Times,serif" font-size="14.00">«FUNCTION»</text>
<text text-anchor="middle" x="2432" y="-477.3" font-family="Times,serif" font-size="14.00"> function</text>
</g>
</g>
</svg>
